HIERARCHY
ROOT Hips
{
	OFFSET -0.179506 -22.333345 2.821913
	CHANNELS 6 Xposition Yposition Zposition Zrotation Yrotation Xrotation 
	JOINT LeftUpLeg
	{
		OFFSET 6.951974 -9.140623 -0.681533
		CHANNELS 3 Zrotation Yrotation Xrotation
		JOINT LeftLeg
		{
			OFFSET 3.427654 -37.519855 -0.449580
			CHANNELS 3 Zrotation Yrotation Xrotation
			JOINT LeftFoot
			{
				OFFSET -1.359570 -39.796059 -4.369333
				CHANNELS 3 Zrotation Yrotation Xrotation
				JOINT LeftToe
				{
					OFFSET 2.635814 -5.579078 11.928840
					CHANNELS 3 Zrotation Yrotation Xrotation
					End Site
					{
						OFFSET 0.000000 0.000000 0.000000
					}
				}
			}
		}
	}
	JOINT RightUpLeg
	{
		OFFSET -6.767048 -9.052170 -0.431982
		CHANNELS 3 Zrotation Yrotation Xrotation
		JOINT RightLeg
		{
			OFFSET -3.829005 -38.256897 -0.885003
			CHANNELS 3 Zrotation Yrotation Xrotation
			JOINT RightFoot
			{
				OFFSET 1.577377 -39.841461 -4.231180
				CHANNELS 3 Zrotation Yrotation Xrotation
				JOINT RightToe
				{
					OFFSET -2.537174 -4.814398 12.334795
					CHANNELS 3 Zrotation Yrotation Xrotation
					End Site
					{
						OFFSET 0.000000 0.000000 0.000000
					}
				}
			}
		}
	}
	JOINT Spine
	{
		OFFSET -0.253288 10.896323 -2.669631
		CHANNELS 3 Zrotation Yrotation Xrotation
		JOINT Spine1
		{
			OFFSET 0.548704 13.518043 0.109247
			CHANNELS 3 Zrotation Yrotation Xrotation
			JOINT Spine2
			{
				OFFSET 0.145701 5.292222 2.542457
				CHANNELS 3 Zrotation Yrotation Xrotation
				JOINT Neck
				{
					OFFSET -0.277840 21.387037 -4.285703
					CHANNELS 3 Zrotation Yrotation Xrotation
					JOINT Head
					{
						OFFSET 0.515184 6.496960 5.134897
						CHANNELS 3 Zrotation Yrotation Xrotation
						End Site
						{
							OFFSET 0.000000 0.000000 0.000000
						}
					}
				}
				JOINT LeftShoulder
				{
					OFFSET 7.884473 12.174932 -3.408961
					CHANNELS 3 Zrotation Yrotation Xrotation
					JOINT LeftArm
					{
						OFFSET 9.097692 3.046888 -0.886815
						CHANNELS 3 Zrotation Yrotation Xrotation
						JOINT LeftForeArm
						{
							OFFSET 25.961220 -1.277207 -2.745643
							CHANNELS 3 Zrotation Yrotation Xrotation
							JOINT LeftHand
							{
								OFFSET 24.923361 0.898606 -0.117091
								CHANNELS 3 Zrotation Yrotation Xrotation
								End Site
								{
									OFFSET 0.000000 0.000000 0.000000
								}
							}
						}
					}
				}
				JOINT RightShoulder
				{
					OFFSET -8.175920 11.883285 -3.861528
					CHANNELS 3 Zrotation Yrotation Xrotation
					JOINT RightArm
					{
						OFFSET -9.601238 3.255117 -0.914307
						CHANNELS 3 Zrotation Yrotation Xrotation
						JOINT RightForeArm
						{
							OFFSET -25.374195 -1.332924 -2.140099
							CHANNELS 3 Zrotation Yrotation Xrotation
							JOINT RightHand
							{
								OFFSET -25.529810 0.777228 -0.555919
								CHANNELS 3 Zrotation Yrotation Xrotation
								End Site
								{
									OFFSET 0.000000 0.000000 0.000000
								}
							}
						}
					}
				}
			}
		}
	}
}
MOTION
Frames: 13
Frame Time: 0.033333
283.527985 266.502777 85.628983 -41.138285 3.607823 88.323681 -0.393566 4.383948 31.004557 5.052487 -13.487485 -3.972299 -3.223261 9.908985 -12.931798 nan nan nan 0.986829 1.276104 -24.226128 5.355181 -9.625800 9.457987 4.958551 -4.392938 13.443236 nan nan nan 0.659103 -7.599499 -6.740637 5.312980 -1.122213 8.569648 -0.545233 -2.165212 2.443287 1.824697 -1.233753 -5.180813 6.445065 -2.624729 -0.717575 -17.070149 3.242407 1.073613 -73.327606 -13.205289 19.061368 36.761345 -60.631051 -53.611363 -13.387962 -22.028068 -34.246198 16.932587 0.248302 0.758091 59.969221 11.727249 6.604691 -29.907192 69.509608 -43.313135 14.500765 15.865346 -29.775399 
282.755585 265.766968 85.677292 -41.124518 3.449295 88.349899 -0.481110 4.289661 30.552911 4.526822 -13.444837 -2.127851 -3.206709 10.018648 -12.227637 nan nan nan 0.715716 1.312181 -24.353301 5.473629 -9.755843 10.984493 4.902425 -4.334850 13.063249 nan nan nan 0.520816 -7.610516 -6.734341 5.275969 -1.104636 8.138265 -0.488613 -2.136424 2.644319 1.668462 -1.509138 -5.019288 6.661893 -2.475203 -0.736637 -16.815535 3.135947 1.289297 -73.694759 -12.953130 19.113305 37.380022 -60.457604 -54.034705 -14.104806 -22.133411 -34.617987 16.860303 0.257276 0.900754 59.968493 11.698307 6.592201 -29.430057 69.473328 -42.877698 15.740642 15.885147 -29.965557 
282.010345 265.037109 85.763702 -41.066686 3.409675 88.375492 -0.577924 3.913523 29.864871 3.926782 -13.357722 0.111049 -3.396673 10.278271 -11.419872 nan nan nan 0.523542 1.353149 -24.381236 5.694549 -9.854231 12.235583 4.497360 -4.139312 12.587020 nan nan nan 0.662329 -7.565225 -6.719893 5.258757 -1.169765 7.853002 -0.471016 -2.208822 2.646819 1.358721 -1.687960 -4.624560 6.664991 -2.267542 -1.078276 -16.994341 3.153698 1.448970 -73.657897 -12.676163 18.953119 37.500022 -60.548248 -53.757831 -12.697147 -22.026146 -34.959770 16.713724 0.284771 1.030780 59.945645 11.569296 6.493666 -29.165675 69.602665 -42.351211 14.423312 15.838420 -29.892160 
281.277679 264.301544 85.852936 -40.965470 3.405433 88.335876 -0.785026 3.201376 29.295374 3.324020 -13.455395 2.201763 -4.007282 10.570749 -10.015788 nan nan nan 0.326409 1.401973 -24.262699 6.012513 -9.925354 13.331967 3.823643 -3.951486 12.091176 nan nan nan 0.832074 -7.465156 -6.609111 5.242815 -1.270588 7.702423 -0.480121 -2.262952 2.500701 1.169835 -1.833667 -4.414695 6.612818 -2.103558 -1.228792 -17.081827 3.298071 1.628807 -73.705600 -12.572588 18.840789 37.390461 -60.582433 -53.256014 -11.676022 -21.728285 -34.994937 16.590643 0.293882 1.187577 59.969301 11.477521 6.465142 -29.197916 69.735614 -42.456511 13.598011 15.887885 -30.020916 
280.564941 263.579163 85.978828 -40.839141 3.332094 88.155912 -1.083496 2.447235 28.714838 2.687334 -13.413437 4.505966 -4.483335 10.788605 -8.732936 nan nan nan 0.124289 1.313216 -23.967577 6.255867 -10.037176 14.455989 3.384593 -3.860874 11.473924 nan nan nan 0.804295 -7.265376 -6.277471 5.234798 -1.355592 7.704352 -0.438627 -2.323747 2.225248 1.077420 -1.907115 -4.392994 6.684159 -2.047653 -1.353950 -17.016355 3.296411 1.785846 -73.788598 -12.542431 18.937430 37.280248 -60.632698 -53.046182 -10.919431 -21.840005 -35.099097 16.551458 0.199806 1.118167 59.963362 11.269303 6.498024 -29.421654 69.842515 -42.878837 12.982626 16.002345 -29.980648 
279.829773 262.860809 86.106232 -40.907076 3.273622 87.981924 -1.421813 1.771479 27.975134 2.037418 -13.147101 7.036246 -4.566268 11.252596 -7.519243 nan nan nan 0.042534 1.250472 -23.648013 6.469272 -9.981964 15.611549 3.044597 -3.825745 10.498967 nan nan nan 0.757277 -6.938339 -5.993178 5.238224 -1.359700 7.775983 -0.351127 -2.376626 1.924963 0.924901 -2.115661 -4.255327 6.805670 -1.902670 -1.591528 -16.933401 3.117131 1.952991 -73.931020 -12.413315 18.985708 37.392048 -60.678704 -53.117922 -10.509528 -21.939884 -35.388534 16.423432 0.116114 0.975870 60.003179 10.976864 6.492851 -29.383491 70.006837 -42.910487 12.783243 16.062387 -29.942146 
279.057251 262.142517 86.212463 -41.202463 3.192432 87.918306 -1.624807 1.440093 27.038323 1.364466 -12.682892 9.605529 -4.513116 11.467924 -5.980793 nan nan nan 0.055231 1.278044 -23.423563 6.605445 -9.831240 16.720649 2.743539 -3.673233 9.437783 nan nan nan 0.851443 -6.683803 -5.934869 5.134859 -1.307576 7.686386 -0.338312 -2.311381 1.870495 0.780348 -2.208005 -4.016226 6.846720 -1.752806 -1.780708 -16.816210 2.959065 2.108502 -74.059278 -12.213500 18.835762 37.559222 -60.560733 -53.019126 -10.596781 -21.826590 -35.378651 16.240346 0.147613 1.086089 60.234088 10.897529 6.412191 -29.223746 70.038642 -42.681137 12.976458 16.067742 -29.920715 
278.308838 261.435242 86.290855 -41.567539 3.120056 87.835714 -1.769073 1.188689 25.999054 0.608147 -12.090671 12.238713 -4.391854 11.554591 -4.420056 nan nan nan 0.123508 1.342635 -23.145695 6.672299 -9.580003 17.687964 2.378688 -3.496762 8.540269 nan nan nan 1.098792 -6.492099 -5.784750 4.956721 -1.311750 7.430415 -0.409800 -2.142686 1.962680 0.656082 -2.223158 -3.726667 6.824695 -1.654794 -2.120199 -16.717741 2.938500 2.195434 -74.113402 -12.044597 18.579441 37.686776 -60.563189 -52.952731 -10.441793 -21.591950 -35.386776 15.992506 0.250079 1.326537 60.507624 10.960460 6.303921 -29.130877 70.131097 -42.397446 12.802259 15.925897 -29.901094 
277.587830 260.744476 86.376900 -41.873771 3.048723 87.715625 -1.937684 0.732423 24.786933 -0.284989 -11.395095 15.076754 -4.280013 11.486274 -3.032636 nan nan nan 0.183324 1.328315 -22.704531 6.693770 -9.393159 18.434999 1.902017 -3.268478 7.673574 nan nan nan 1.306293 -6.237363 -5.483115 4.773947 -1.342779 7.059723 -0.423590 -2.009280 2.074883 0.482891 -2.157148 -3.237720 6.847331 -1.576450 -2.790615 -16.675676 2.969669 2.215777 -74.120857 -11.927078 18.365569 37.578228 -60.645012 -52.811626 -10.176172 -21.691458 -35.385769 15.722578 0.354874 1.448956 60.770425 10.971282 6.158394 -28.921696 70.204045 -42.183051 12.615668 16.008882 -29.799512 
276.844635 260.080139 86.467186 -42.197284 2.984640 87.680863 -2.022011 0.246294 23.403768 -1.215943 -10.594634 17.862234 -4.007897 11.158837 -1.169385 nan nan nan 0.306201 1.366120 -22.168779 6.698652 -9.160138 18.874459 1.456336 -3.086390 6.738652 nan nan nan 1.408486 -5.908442 -5.302820 4.618091 -1.332183 6.682741 -0.359014 -1.914766 2.224959 0.316489 -2.053476 -2.768983 6.891441 -1.436342 -3.343640 -16.635517 2.930812 2.203649 -74.127521 -11.717375 18.168460 37.536206 -60.687838 -52.663442 -10.069835 -21.593907 -35.181438 15.497214 0.419902 1.527541 61.013603 10.922114 6.063054 -28.922693 70.312103 -42.198211 12.513121 15.985172 -29.797674 
276.104218 259.404846 86.533798 -42.604804 2.906486 87.736886 -1.998775 -0.013357 21.789353 -2.095912 -9.587880 20.758013 -3.773498 10.534629 1.064234 nan nan nan 0.434661 1.472776 -21.627324 6.719426 -8.961088 19.034053 1.109654 -2.878445 6.056559 nan nan nan 1.645083 -5.628257 -5.254859 4.399395 -1.316493 6.222043 -0.410410 -1.757594 2.533881 0.213384 -1.906601 -2.347917 6.880600 -1.454136 -3.878383 -16.510842 3.018777 2.019143 -74.153779 -11.426587 18.045904 37.475482 -60.615498 -52.247856 -9.955314 -21.311079 -34.874156 15.226784 0.466849 1.544820 61.420147 10.858650 6.179629 -29.299951 70.360394 -42.524912 12.219827 15.837412 -30.197660 
276.247681 260.984528 86.374428 -40.334376 2.592943 88.243234 -0.616907 -3.361274 14.521857 -5.147118 -6.736550 31.016160 -3.135053 8.288040 0.451078 nan nan nan 0.345602 2.325713 -24.007218 5.919148 -9.899943 20.720154 0.955912 -5.051864 6.240360 nan nan nan -2.059340 -5.237307 2.725619 5.586524 -2.199350 -0.875198 1.208629 -2.359930 2.388638 0.459127 -3.516597 -3.982635 7.859971 -0.343223 -2.965433 -15.525641 3.838391 1.793710 -74.029389 -12.395315 20.187844 37.915243 -60.346777 -50.558161 -5.901850 -20.775871 -37.724015 16.230265 -0.768900 -0.426205 61.715593 10.510749 9.099083 -31.880570 70.221845 -43.366265 9.608081 15.454110 -33.138706 
275.608032 260.433716 86.500122 -40.479807 2.697721 88.345982 -0.062877 -3.737303 12.291087 -5.645246 -5.125282 34.085414 -3.365222 7.774862 3.083687 nan nan nan 0.645990 2.300622 -23.669125 5.958687 -9.796156 21.081304 0.596869 -4.984283 5.503312 nan nan nan -1.796507 -4.816221 2.757734 5.553018 -2.336998 -1.220255 1.199359 -2.269611 2.678282 0.326136 -3.843654 -3.866022 7.950983 -0.045513 -3.038556 -15.014352 3.762505 2.062911 -74.273648 -12.024550 20.541899 36.534665 -60.902857 -50.603798 -11.116398 -20.688107 -40.945231 15.707174 -1.043954 -0.258642 62.341128 10.779153 8.981151 -32.560753 70.288434 -44.007221 12.903291 14.781026 -32.202521 
